<mxfile host="app.diagrams.net" modified="2023-04-24T10:40:07.034Z" agent="Mozilla/5.0 (Windows NT 10.0; Win64; x64; rv:109.0) Gecko/20100101 Firefox/112.0" etag="C47xrUp1i3kkbE4xuMZ9" version="21.2.1" type="device">
  <diagram name="Page-1" id="UOV_tLViCAk-rBuNUivF">
    <mxGraphModel dx="2330" dy="1243" grid="0" gridSize="10" guides="1" tooltips="1" connect="1" arrows="1" fold="1" page="1" pageScale="1" pageWidth="850" pageHeight="1100" math="0" shadow="0">
      <root>
        <mxCell id="0" />
        <mxCell id="1" parent="0" />
        <mxCell id="BuN2VBnUMr_rQNtmjdc3-2" value="" style="group" vertex="1" connectable="0" parent="1">
          <mxGeometry x="29" y="38" width="1111" height="239" as="geometry" />
        </mxCell>
        <mxCell id="BuN2VBnUMr_rQNtmjdc3-1" value="" style="rounded=0;whiteSpace=wrap;html=1;" vertex="1" parent="BuN2VBnUMr_rQNtmjdc3-2">
          <mxGeometry width="1111" height="239" as="geometry" />
        </mxCell>
        <mxCell id="KIKajugQmZI2HNPt0nD3-63" value="" style="group;aspect=fixed;" parent="BuN2VBnUMr_rQNtmjdc3-2" vertex="1" connectable="0">
          <mxGeometry x="25.5" y="29.5" width="1060" height="180" as="geometry" />
        </mxCell>
        <mxCell id="KIKajugQmZI2HNPt0nD3-34" value="" style="shape=flexArrow;endArrow=classic;html=1;rounded=0;endWidth=18;endSize=9.67;width=24;strokeWidth=3;fillColor=#d5e8d4;strokeColor=#82b366;" parent="KIKajugQmZI2HNPt0nD3-63" edge="1">
          <mxGeometry width="50" height="50" relative="1" as="geometry">
            <mxPoint x="120" y="49.5" as="sourcePoint" />
            <mxPoint x="310" y="49.5" as="targetPoint" />
          </mxGeometry>
        </mxCell>
        <mxCell id="KIKajugQmZI2HNPt0nD3-36" value="Start the calculation helper to calculate the scanned datasets and move them into the CALCULATED folder" style="text;html=1;strokeColor=none;fillColor=none;align=center;verticalAlign=middle;whiteSpace=wrap;rounded=0;fontSize=15;" parent="KIKajugQmZI2HNPt0nD3-63" vertex="1">
          <mxGeometry x="120" y="90" width="190" height="90" as="geometry" />
        </mxCell>
        <mxCell id="KIKajugQmZI2HNPt0nD3-53" value="" style="group" parent="KIKajugQmZI2HNPt0nD3-63" vertex="1" connectable="0">
          <mxGeometry width="110" height="102" as="geometry" />
        </mxCell>
        <mxCell id="KIKajugQmZI2HNPt0nD3-6" value="" style="sketch=0;outlineConnect=0;fontColor=#232F3E;gradientColor=none;fillColor=#232F3D;strokeColor=none;dashed=0;verticalLabelPosition=bottom;verticalAlign=top;align=center;html=1;fontSize=12;fontStyle=0;aspect=fixed;pointerEvents=1;shape=mxgraph.aws4.folder;" parent="KIKajugQmZI2HNPt0nD3-53" vertex="1">
          <mxGeometry x="16" width="78" height="71" as="geometry" />
        </mxCell>
        <mxCell id="KIKajugQmZI2HNPt0nD3-10" value="1_SCANNED" style="text;html=1;align=center;verticalAlign=middle;resizable=0;points=[];autosize=1;strokeColor=none;fillColor=none;fontSize=14;" parent="KIKajugQmZI2HNPt0nD3-53" vertex="1">
          <mxGeometry y="72" width="110" height="30" as="geometry" />
        </mxCell>
        <mxCell id="KIKajugQmZI2HNPt0nD3-54" value="" style="group" parent="KIKajugQmZI2HNPt0nD3-63" vertex="1" connectable="0">
          <mxGeometry x="310" y="1" width="123" height="101" as="geometry" />
        </mxCell>
        <mxCell id="KIKajugQmZI2HNPt0nD3-45" value="" style="sketch=0;outlineConnect=0;fontColor=#232F3E;gradientColor=none;fillColor=#232F3D;strokeColor=none;dashed=0;verticalLabelPosition=bottom;verticalAlign=top;align=center;html=1;fontSize=12;fontStyle=0;aspect=fixed;pointerEvents=1;shape=mxgraph.aws4.folder;" parent="KIKajugQmZI2HNPt0nD3-54" vertex="1">
          <mxGeometry x="21" width="78" height="71" as="geometry" />
        </mxCell>
        <mxCell id="KIKajugQmZI2HNPt0nD3-46" value="&lt;div&gt;2_CALCULATED&lt;/div&gt;" style="text;html=1;align=center;verticalAlign=middle;resizable=0;points=[];autosize=1;strokeColor=none;fillColor=none;fontSize=14;" parent="KIKajugQmZI2HNPt0nD3-54" vertex="1">
          <mxGeometry x="-2" y="72" width="125" height="29" as="geometry" />
        </mxCell>
        <mxCell id="KIKajugQmZI2HNPt0nD3-55" value="" style="group" parent="KIKajugQmZI2HNPt0nD3-63" vertex="1" connectable="0">
          <mxGeometry x="630" width="110" height="101" as="geometry" />
        </mxCell>
        <mxCell id="KIKajugQmZI2HNPt0nD3-48" value="" style="sketch=0;outlineConnect=0;fontColor=#232F3E;gradientColor=none;fillColor=#232F3D;strokeColor=none;dashed=0;verticalLabelPosition=bottom;verticalAlign=top;align=center;html=1;fontSize=12;fontStyle=0;aspect=fixed;pointerEvents=1;shape=mxgraph.aws4.folder;" parent="KIKajugQmZI2HNPt0nD3-55" vertex="1">
          <mxGeometry x="16" width="78" height="71" as="geometry" />
        </mxCell>
        <mxCell id="KIKajugQmZI2HNPt0nD3-49" value="3_UNPINNED" style="text;html=1;align=center;verticalAlign=middle;resizable=0;points=[];autosize=1;strokeColor=none;fillColor=none;fontSize=14;" parent="KIKajugQmZI2HNPt0nD3-55" vertex="1">
          <mxGeometry y="71" width="110" height="30" as="geometry" />
        </mxCell>
        <mxCell id="KIKajugQmZI2HNPt0nD3-56" value="" style="group" parent="KIKajugQmZI2HNPt0nD3-63" vertex="1" connectable="0">
          <mxGeometry x="940" width="120" height="100" as="geometry" />
        </mxCell>
        <mxCell id="KIKajugQmZI2HNPt0nD3-51" value="" style="sketch=0;outlineConnect=0;fontColor=#232F3E;gradientColor=none;fillColor=#232F3D;strokeColor=none;dashed=0;verticalLabelPosition=bottom;verticalAlign=top;align=center;html=1;fontSize=12;fontStyle=0;aspect=fixed;pointerEvents=1;shape=mxgraph.aws4.folder;" parent="KIKajugQmZI2HNPt0nD3-56" vertex="1">
          <mxGeometry x="21" width="78" height="71" as="geometry" />
        </mxCell>
        <mxCell id="KIKajugQmZI2HNPt0nD3-52" value="4_EXPORTED" style="text;html=1;align=center;verticalAlign=middle;resizable=0;points=[];autosize=1;strokeColor=none;fillColor=none;fontSize=14;" parent="KIKajugQmZI2HNPt0nD3-56" vertex="1">
          <mxGeometry y="70" width="120" height="30" as="geometry" />
        </mxCell>
        <mxCell id="KIKajugQmZI2HNPt0nD3-58" value="" style="shape=flexArrow;endArrow=classic;html=1;rounded=0;endWidth=18;endSize=9.67;width=24;strokeWidth=3;fillColor=#f8cecc;strokeColor=#b85450;" parent="KIKajugQmZI2HNPt0nD3-63" edge="1">
          <mxGeometry width="50" height="50" relative="1" as="geometry">
            <mxPoint x="430" y="49.5" as="sourcePoint" />
            <mxPoint x="620" y="49.5" as="targetPoint" />
          </mxGeometry>
        </mxCell>
        <mxCell id="KIKajugQmZI2HNPt0nD3-59" value="" style="shape=flexArrow;endArrow=classic;html=1;rounded=0;endWidth=18;endSize=9.67;width=24;strokeWidth=3;fillColor=#d5e8d4;strokeColor=#82b366;" parent="KIKajugQmZI2HNPt0nD3-63" edge="1">
          <mxGeometry width="50" height="50" relative="1" as="geometry">
            <mxPoint x="750" y="50.5" as="sourcePoint" />
            <mxPoint x="940" y="50.5" as="targetPoint" />
          </mxGeometry>
        </mxCell>
        <mxCell id="KIKajugQmZI2HNPt0nD3-60" value="Manually, remove the needle from the calculated dataset model and move the dataset to the UNPINNED folder" style="text;html=1;strokeColor=none;fillColor=none;align=center;verticalAlign=middle;whiteSpace=wrap;rounded=0;fontSize=15;" parent="KIKajugQmZI2HNPt0nD3-63" vertex="1">
          <mxGeometry x="430" y="90" width="190" height="90" as="geometry" />
        </mxCell>
        <mxCell id="KIKajugQmZI2HNPt0nD3-61" value="Start the export helper to export the unpinned datasets and move them into the EXPORTED folder" style="text;html=1;strokeColor=none;fillColor=none;align=center;verticalAlign=middle;whiteSpace=wrap;rounded=0;fontSize=15;" parent="KIKajugQmZI2HNPt0nD3-63" vertex="1">
          <mxGeometry x="750" y="90" width="190" height="70" as="geometry" />
        </mxCell>
      </root>
    </mxGraphModel>
  </diagram>
</mxfile>
